<svg width="32" height="32" viewBox="0 0 32 32" xmlns="http://www.w3.org/2000/svg">
  <defs>
    <linearGradient id="gradient" x1="0%" y1="0%" x2="100%" y2="100%">
      <stop offset="0%" style="stop-color:#4f46e5;stop-opacity:1" />
      <stop offset="50%" style="stop-color:#7c3aed;stop-opacity:1" />
      <stop offset="100%" style="stop-color:#ec4899;stop-opacity:1" />
    </linearGradient>
  </defs>
  
  <!-- Octopus body -->
  <ellipse cx="16" cy="12" rx="8" ry="6" fill="url(#gradient)"/>
  
  <!-- Eyes -->
  <circle cx="13" cy="10" r="1.5" fill="white"/>
  <circle cx="19" cy="10" r="1.5" fill="white"/>
  <circle cx="13" cy="10" r="0.8" fill="black"/>
  <circle cx="19" cy="10" r="0.8" fill="black"/>
  
  <!-- Tentacles -->
  <path d="M10 17 Q8 20 6 23 Q5 25 7 26 Q9 25 8 22 Q10 19 12 18" fill="url(#gradient)" opacity="0.9"/>
  <path d="M14 18 Q12 22 10 26 Q9 28 11 29 Q13 28 12 25 Q14 21 16 19" fill="url(#gradient)" opacity="0.9"/>
  <path d="M18 18 Q20 22 22 26 Q23 28 21 29 Q19 28 20 25 Q18 21 16 19" fill="url(#gradient)" opacity="0.9"/>
  <path d="M22 17 Q24 20 26 23 Q27 25 25 26 Q23 25 24 22 Q22 19 20 18" fill="url(#gradient)" opacity="0.9"/>
</svg> 